
<svg xmlns="http://www.w3.org/2000/svg" width="460" height="576" viewBox="0 0 460 576" fill="none">
<mask id="path-1-inside-1" fill="white">
<path fill-rule="evenodd" clip-rule="evenodd" d="M221.065 52.1985H107.748V328.763H295.613V147.08L221.065 52.1985Z"/>
</mask>
<path fill-rule="evenodd" clip-rule="evenodd" d="M221.065 52.1985H107.748V328.763H295.613V147.08L221.065 52.1985Z" fill="#808080"/>
<path d="M107.748 52.1985V52.0985H107.648V52.1985H107.748ZM221.065 52.1985L221.143 52.1368L221.113 52.0985H221.065V52.1985ZM107.748 328.763H107.648V328.863H107.748V328.763ZM295.613 328.763V328.863H295.713V328.763H295.613ZM295.613 147.08H295.713V147.045L295.691 147.018L295.613 147.08ZM107.748 52.2985H221.065V52.0985H107.748V52.2985ZM107.848 328.763V52.1985H107.648V328.763H107.848ZM295.613 328.663H107.748V328.863H295.613V328.663ZM295.513 147.08V328.763H295.713V147.08H295.513ZM295.691 147.018L221.143 52.1368L220.986 52.2603L295.534 147.142L295.691 147.018Z" fill="black" fill-opacity="0.5" mask="url(#path-1-inside-1)"/>
<g filter="url(#filter0_d)">
<path d="M220.546 146.317L220.546 51.811L294.879 146.317L220.546 146.317Z" fill="#ADA7A7"/>
</g>
<rect x="55" y="73.4727" width="101.387" height="57.7442" fill="#1E5F8E"/>
<g filter="url(#filter1_d)">
<path d="M93.2615 101.43C93.2615 103.36 92.8201 104.915 91.9373 106.094C91.0544 107.274 89.8591 107.864 88.3513 107.864C86.8123 107.864 85.6013 107.375 84.7185 106.399V112.504H82.5505V94.9497H84.531L84.6365 96.356C85.5193 95.2622 86.7458 94.7153 88.3162 94.7153C89.8396 94.7153 91.0427 95.2896 91.9255 96.438C92.8162 97.5864 93.2615 99.1841 93.2615 101.231V101.43ZM91.0935 101.184C91.0935 99.7544 90.7888 98.6255 90.1794 97.7974C89.5701 96.9692 88.7341 96.5552 87.6716 96.5552C86.3591 96.5552 85.3748 97.1372 84.7185 98.3013V104.36C85.3669 105.516 86.3591 106.094 87.6951 106.094C88.7341 106.094 89.5583 105.684 90.1677 104.864C90.7849 104.036 91.0935 102.809 91.0935 101.184ZM102.156 96.895C101.828 96.8403 101.472 96.813 101.09 96.813C99.6677 96.813 98.7029 97.4185 98.1951 98.6294V107.629H96.0271V94.9497H98.1365L98.1716 96.4146C98.8826 95.2817 99.8904 94.7153 101.195 94.7153C101.617 94.7153 101.937 94.77 102.156 94.8794V96.895ZM103.351 101.172C103.351 99.9302 103.594 98.813 104.078 97.8208C104.57 96.8286 105.25 96.063 106.117 95.5239C106.992 94.9849 107.988 94.7153 109.105 94.7153C110.832 94.7153 112.226 95.313 113.289 96.5083C114.359 97.7036 114.894 99.2935 114.894 101.278V101.43C114.894 102.665 114.656 103.774 114.179 104.758C113.711 105.735 113.035 106.497 112.152 107.043C111.277 107.59 110.269 107.864 109.129 107.864C107.41 107.864 106.015 107.266 104.945 106.071C103.883 104.875 103.351 103.293 103.351 101.325V101.172ZM105.531 101.43C105.531 102.836 105.855 103.965 106.504 104.817C107.16 105.668 108.035 106.094 109.129 106.094C110.23 106.094 111.105 105.665 111.754 104.805C112.402 103.938 112.726 102.727 112.726 101.172C112.726 99.7817 112.394 98.6567 111.73 97.7974C111.074 96.9302 110.199 96.4966 109.105 96.4966C108.035 96.4966 107.172 96.9224 106.515 97.7739C105.859 98.6255 105.531 99.8442 105.531 101.43ZM128.324 101.43C128.324 103.36 127.883 104.915 127 106.094C126.117 107.274 124.922 107.864 123.414 107.864C121.875 107.864 120.664 107.375 119.781 106.399V112.504H117.613V94.9497H119.594L119.699 96.356C120.582 95.2622 121.808 94.7153 123.379 94.7153C124.902 94.7153 126.105 95.2896 126.988 96.438C127.879 97.5864 128.324 99.1841 128.324 101.231V101.43ZM126.156 101.184C126.156 99.7544 125.851 98.6255 125.242 97.7974C124.633 96.9692 123.797 96.5552 122.734 96.5552C121.422 96.5552 120.437 97.1372 119.781 98.3013V104.36C120.429 105.516 121.422 106.094 122.758 106.094C123.797 106.094 124.621 105.684 125.23 104.864C125.847 104.036 126.156 102.809 126.156 101.184ZM138.472 104.266C138.472 103.68 138.25 103.227 137.804 102.907C137.367 102.579 136.597 102.297 135.496 102.063C134.402 101.829 133.531 101.547 132.883 101.219C132.242 100.891 131.765 100.5 131.453 100.047C131.148 99.5942 130.996 99.0552 130.996 98.4302C130.996 97.3911 131.433 96.5122 132.308 95.7935C133.191 95.0747 134.316 94.7153 135.683 94.7153C137.121 94.7153 138.285 95.0864 139.176 95.8286C140.074 96.5708 140.523 97.52 140.523 98.6763H138.344C138.344 98.0825 138.09 97.5708 137.582 97.1411C137.082 96.7114 136.449 96.4966 135.683 96.4966C134.894 96.4966 134.277 96.6685 133.832 97.0122C133.386 97.356 133.164 97.8052 133.164 98.3599C133.164 98.8833 133.371 99.2778 133.785 99.5435C134.199 99.8091 134.945 100.063 136.023 100.305C137.109 100.547 137.988 100.836 138.66 101.172C139.332 101.508 139.828 101.915 140.148 102.391C140.476 102.86 140.64 103.434 140.64 104.114C140.64 105.247 140.187 106.157 139.281 106.844C138.375 107.524 137.199 107.864 135.754 107.864C134.738 107.864 133.84 107.684 133.058 107.325C132.277 106.965 131.664 106.465 131.219 105.825C130.781 105.176 130.562 104.477 130.562 103.727H132.73C132.769 104.454 133.058 105.032 133.597 105.461C134.144 105.883 134.863 106.094 135.754 106.094C136.574 106.094 137.23 105.93 137.722 105.602C138.222 105.266 138.472 104.821 138.472 104.266Z" fill="#E5E5E5"/>
</g>
<g filter="url(#filter2_d)">
<mask id="path-6-outside-2" maskUnits="userSpaceOnUse" x="208.135" y="109.063" width="189" height="278" fill="black">
<rect fill="white" x="208.135" y="109.063" width="189" height="278"/>
<path fill-rule="evenodd" clip-rule="evenodd" d="M322.452 110.063H209.135V386.627H397V204.944L322.452 110.063Z"/>
</mask>
<path fill-rule="evenodd" clip-rule="evenodd" d="M322.452 110.063H209.135V386.627H397V204.944L322.452 110.063Z" fill="#808080" shape-rendering="crispEdges"/>
<path d="M209.135 110.063V109.963H209.035V110.063H209.135ZM322.452 110.063L322.531 110.001L322.5 109.963H322.452V110.063ZM209.135 386.627H209.035V386.727H209.135V386.627ZM397 386.627V386.727H397.1V386.627H397ZM397 204.944H397.1V204.91L397.079 204.882L397 204.944ZM209.135 110.163H322.452V109.963H209.135V110.163ZM209.235 386.627V110.063H209.035V386.627H209.235ZM397 386.527H209.135V386.727H397V386.527ZM396.9 204.944V386.627H397.1V204.944H396.9ZM397.079 204.882L322.531 110.001L322.373 110.125L396.921 205.006L397.079 204.882Z" fill="black" fill-opacity="0.5" mask="url(#path-6-outside-2)"/>
</g>
<g filter="url(#filter3_d)">
<path d="M321.934 204.182L321.934 109.675L396.266 204.182L321.934 204.182Z" fill="#ADA7A7"/>
</g>
<rect x="167.387" y="131.337" width="101.387" height="57.7442" fill="#1A5C8B"/>
<g filter="url(#filter4_d)">
<path d="M194.649 159.295C194.649 161.224 194.207 162.779 193.325 163.959C192.442 165.138 191.247 165.728 189.739 165.728C188.2 165.728 186.989 165.24 186.106 164.263V170.369H183.938V152.814H185.918L186.024 154.22C186.907 153.127 188.133 152.58 189.704 152.58C191.227 152.58 192.43 153.154 193.313 154.302C194.204 155.451 194.649 157.048 194.649 159.095V159.295ZM192.481 159.048C192.481 157.619 192.176 156.49 191.567 155.662C190.957 154.834 190.122 154.42 189.059 154.42C187.747 154.42 186.762 155.002 186.106 156.166V162.224C186.754 163.38 187.747 163.959 189.082 163.959C190.122 163.959 190.946 163.548 191.555 162.728C192.172 161.9 192.481 160.673 192.481 159.048ZM203.543 154.759C203.215 154.705 202.86 154.677 202.477 154.677C201.055 154.677 200.09 155.283 199.582 156.494V165.494H197.414V152.814H199.524L199.559 154.279C200.27 153.146 201.278 152.58 202.582 152.58C203.004 152.58 203.325 152.634 203.543 152.744V154.759ZM204.739 159.037C204.739 157.795 204.981 156.677 205.465 155.685C205.957 154.693 206.637 153.927 207.504 153.388C208.379 152.849 209.375 152.58 210.493 152.58C212.219 152.58 213.614 153.177 214.676 154.373C215.747 155.568 216.282 157.158 216.282 159.142V159.295C216.282 160.529 216.043 161.638 215.567 162.623C215.098 163.599 214.422 164.361 213.539 164.908C212.664 165.455 211.657 165.728 210.516 165.728C208.797 165.728 207.403 165.13 206.332 163.935C205.27 162.74 204.739 161.158 204.739 159.189V159.037ZM206.918 159.295C206.918 160.701 207.243 161.83 207.891 162.681C208.547 163.533 209.422 163.959 210.516 163.959C211.618 163.959 212.493 163.529 213.141 162.67C213.789 161.802 214.114 160.591 214.114 159.037C214.114 157.646 213.782 156.521 213.118 155.662C212.461 154.795 211.586 154.361 210.493 154.361C209.422 154.361 208.559 154.787 207.903 155.638C207.247 156.49 206.918 157.709 206.918 159.295ZM229.711 159.295C229.711 161.224 229.27 162.779 228.387 163.959C227.504 165.138 226.309 165.728 224.801 165.728C223.262 165.728 222.051 165.24 221.168 164.263V170.369H219V152.814H220.981L221.086 154.22C221.969 153.127 223.196 152.58 224.766 152.58C226.289 152.58 227.493 153.154 228.375 154.302C229.266 155.451 229.711 157.048 229.711 159.095V159.295ZM227.543 159.048C227.543 157.619 227.239 156.49 226.629 155.662C226.02 154.834 225.184 154.42 224.122 154.42C222.809 154.42 221.825 155.002 221.168 156.166V162.224C221.817 163.38 222.809 163.959 224.145 163.959C225.184 163.959 226.008 163.548 226.618 162.728C227.235 161.9 227.543 160.673 227.543 159.048ZM239.86 162.13C239.86 161.545 239.637 161.091 239.192 160.771C238.754 160.443 237.985 160.162 236.883 159.927C235.789 159.693 234.918 159.412 234.27 159.084C233.629 158.755 233.153 158.365 232.84 157.912C232.536 157.459 232.383 156.92 232.383 156.295C232.383 155.255 232.821 154.377 233.696 153.658C234.579 152.939 235.704 152.58 237.071 152.58C238.508 152.58 239.672 152.951 240.563 153.693C241.461 154.435 241.911 155.384 241.911 156.541H239.731C239.731 155.947 239.477 155.435 238.969 155.005C238.469 154.576 237.836 154.361 237.071 154.361C236.282 154.361 235.664 154.533 235.219 154.877C234.774 155.22 234.551 155.67 234.551 156.224C234.551 156.748 234.758 157.142 235.172 157.408C235.586 157.673 236.332 157.927 237.411 158.17C238.497 158.412 239.375 158.701 240.047 159.037C240.719 159.373 241.215 159.779 241.536 160.255C241.864 160.724 242.028 161.298 242.028 161.978C242.028 163.111 241.575 164.021 240.668 164.709C239.762 165.388 238.586 165.728 237.141 165.728C236.125 165.728 235.227 165.548 234.446 165.189C233.664 164.83 233.051 164.33 232.606 163.689C232.168 163.041 231.95 162.341 231.95 161.591H234.118C234.157 162.318 234.446 162.896 234.985 163.326C235.532 163.748 236.25 163.959 237.141 163.959C237.961 163.959 238.618 163.795 239.11 163.466C239.61 163.13 239.86 162.685 239.86 162.13Z" fill="#E5E5E5"/>
</g>
<path d="M290.466 324.129C290.466 367.575 255.934 402.632 213.535 402.632C171.136 402.632 136.604 367.575 136.604 324.129C136.604 280.684 171.136 245.627 213.535 245.627C255.934 245.627 290.466 280.684 290.466 324.129Z" fill="#E4E4E4" fill-opacity="0.51" stroke="#1A5C8B" stroke-width="10"/>
<rect width="54.0647" height="139.64" rx="19.5" transform="matrix(0.868499 -0.49569 0.48156 0.876413 232.106 416.617)" fill="#1A5C8B"/>
<g filter="url(#filter5_d)">
<path d="M194.053 323.805H184.104V334H177.934V308.406H195.055V313.17H184.104V319.059H194.053V323.805ZM205.725 308.406L211.438 326.213L217.133 308.406H225.254V334H219.066V328.023L219.664 315.789L213.477 334H209.398L203.193 315.771L203.791 328.023V334H197.621V308.406H205.725ZM235.361 325.316V334H229.191V308.406H239.404C241.361 308.406 243.09 308.77 244.59 309.496C246.102 310.211 247.268 311.236 248.088 312.572C248.92 313.896 249.336 315.402 249.336 317.09C249.336 319.586 248.439 321.584 246.646 323.084C244.865 324.572 242.416 325.316 239.299 325.316H235.361ZM235.361 320.553H239.404C240.6 320.553 241.508 320.254 242.129 319.656C242.762 319.059 243.078 318.215 243.078 317.125C243.078 315.93 242.756 314.975 242.111 314.26C241.467 313.545 240.588 313.182 239.475 313.17H235.361V320.553Z" fill="#1A5C8B"/>
</g>
<defs>
<filter id="filter0_d" x="216.546" y="50.811" width="82.3325" height="102.506" filterUnits="userSpaceOnUse" color-interpolation-filters="sRGB">
<feFlood flood-opacity="0" result="BackgroundImageFix"/>
<feColorMatrix in="SourceAlpha" type="matrix" values="0 0 0 0 0 0 0 0 0 0 0 0 0 0 0 0 0 0 127 0" result="hardAlpha"/>
<feOffset dy="3"/>
<feGaussianBlur stdDeviation="2"/>
<feComposite in2="hardAlpha" operator="out"/>
<feColorMatrix type="matrix" values="0 0 0 0 0 0 0 0 0 0 0 0 0 0 0 0 0 0 0.25 0"/>
<feBlend mode="normal" in2="BackgroundImageFix" result="effect1_dropShadow"/>
<feBlend mode="normal" in="SourceGraphic" in2="effect1_dropShadow" result="shape"/>
</filter>
<filter id="filter1_d" x="78.5505" y="94.7153" width="66.0898" height="25.7891" filterUnits="userSpaceOnUse" color-interpolation-filters="sRGB">
<feFlood flood-opacity="0" result="BackgroundImageFix"/>
<feColorMatrix in="SourceAlpha" type="matrix" values="0 0 0 0 0 0 0 0 0 0 0 0 0 0 0 0 0 0 127 0" result="hardAlpha"/>
<feOffset dy="4"/>
<feGaussianBlur stdDeviation="2"/>
<feComposite in2="hardAlpha" operator="out"/>
<feColorMatrix type="matrix" values="0 0 0 0 0 0 0 0 0 0 0 0 0 0 0 0 0 0 1 0"/>
<feBlend mode="normal" in2="BackgroundImageFix" result="effect1_dropShadow"/>
<feBlend mode="normal" in="SourceGraphic" in2="effect1_dropShadow" result="shape"/>
</filter>
<filter id="filter2_d" x="205.035" y="109.963" width="196.065" height="284.764" filterUnits="userSpaceOnUse" color-interpolation-filters="sRGB">
<feFlood flood-opacity="0" result="BackgroundImageFix"/>
<feColorMatrix in="SourceAlpha" type="matrix" values="0 0 0 0 0 0 0 0 0 0 0 0 0 0 0 0 0 0 127 0" result="hardAlpha"/>
<feOffset dy="4"/>
<feGaussianBlur stdDeviation="2"/>
<feComposite in2="hardAlpha" operator="out"/>
<feColorMatrix type="matrix" values="0 0 0 0 0 0 0 0 0 0 0 0 0 0 0 0 0 0 0.25 0"/>
<feBlend mode="normal" in2="BackgroundImageFix" result="effect1_dropShadow"/>
<feBlend mode="normal" in="SourceGraphic" in2="effect1_dropShadow" result="shape"/>
</filter>
<filter id="filter3_d" x="317.934" y="108.675" width="82.3325" height="102.506" filterUnits="userSpaceOnUse" color-interpolation-filters="sRGB">
<feFlood flood-opacity="0" result="BackgroundImageFix"/>
<feColorMatrix in="SourceAlpha" type="matrix" values="0 0 0 0 0 0 0 0 0 0 0 0 0 0 0 0 0 0 127 0" result="hardAlpha"/>
<feOffset dy="3"/>
<feGaussianBlur stdDeviation="2"/>
<feComposite in2="hardAlpha" operator="out"/>
<feColorMatrix type="matrix" values="0 0 0 0 0 0 0 0 0 0 0 0 0 0 0 0 0 0 0.25 0"/>
<feBlend mode="normal" in2="BackgroundImageFix" result="effect1_dropShadow"/>
<feBlend mode="normal" in="SourceGraphic" in2="effect1_dropShadow" result="shape"/>
</filter>
<filter id="filter4_d" x="179.938" y="152.58" width="66.0898" height="25.7891" filterUnits="userSpaceOnUse" color-interpolation-filters="sRGB">
<feFlood flood-opacity="0" result="BackgroundImageFix"/>
<feColorMatrix in="SourceAlpha" type="matrix" values="0 0 0 0 0 0 0 0 0 0 0 0 0 0 0 0 0 0 127 0" result="hardAlpha"/>
<feOffset dy="4"/>
<feGaussianBlur stdDeviation="2"/>
<feComposite in2="hardAlpha" operator="out"/>
<feColorMatrix type="matrix" values="0 0 0 0 0 0 0 0 0 0 0 0 0 0 0 0 0 0 1 0"/>
<feBlend mode="normal" in2="BackgroundImageFix" result="effect1_dropShadow"/>
<feBlend mode="normal" in="SourceGraphic" in2="effect1_dropShadow" result="shape"/>
</filter>
<filter id="filter5_d" x="173.934" y="308.406" width="79.4023" height="33.5938" filterUnits="userSpaceOnUse" color-interpolation-filters="sRGB">
<feFlood flood-opacity="0" result="BackgroundImageFix"/>
<feColorMatrix in="SourceAlpha" type="matrix" values="0 0 0 0 0 0 0 0 0 0 0 0 0 0 0 0 0 0 127 0" result="hardAlpha"/>
<feOffset dy="4"/>
<feGaussianBlur stdDeviation="2"/>
<feComposite in2="hardAlpha" operator="out"/>
<feColorMatrix type="matrix" values="0 0 0 0 0 0 0 0 0 0 0 0 0 0 0 0 0 0 0.5 0"/>
<feBlend mode="normal" in2="BackgroundImageFix" result="effect1_dropShadow"/>
<feBlend mode="normal" in="SourceGraphic" in2="effect1_dropShadow" result="shape"/>
</filter>
</defs>
</svg>